<svg xmlns="http://www.w3.org/2000/svg" xmlns:xlink="http://www.w3.org/1999/xlink" width="1366" zoomAndPan="magnify" viewBox="0 0 1024.5 576" height="768" preserveAspectRatio="xMidYMid meet" version="1.0"><defs><filter x="0%" y="0%" width="100%" height="100%" id="bcf1a0539b"><feColorMatrix values="0 0 0 0 1 0 0 0 0 1 0 0 0 0 1 0 0 0 1 0" color-interpolation-filters="sRGB"/></filter><clipPath id="be6e32c122"><path d="M 0 0.140625 L 1024 0.140625 L 1024 575.859375 L 0 575.859375 Z M 0 0.140625 " clip-rule="nonzero"/></clipPath><mask id="34d8bd9909"><g filter="url(#bcf1a0539b)"><rect x="-102.45" width="1229.4" fill="#000000" y="-57.6" height="691.2" fill-opacity="0.38"/></g></mask><clipPath id="e5c38acddd"><path d="M 0 291 L 91 291 L 91 575.859375 L 0 575.859375 Z M 0 291 " clip-rule="nonzero"/></clipPath><clipPath id="287db5c416"><path d="M 51 291 L 427 291 L 427 575.859375 L 51 575.859375 Z M 51 291 " clip-rule="nonzero"/></clipPath><clipPath id="a914947ccf"><path d="M 387 291 L 763 291 L 763 575.859375 L 387 575.859375 Z M 387 291 " clip-rule="nonzero"/></clipPath><clipPath id="93dbe9bad3"><path d="M 722 291 L 1024 291 L 1024 575.859375 L 722 575.859375 Z M 722 291 " clip-rule="nonzero"/></clipPath><clipPath id="37eff8e401"><path d="M 0 0.140625 L 130 0.140625 L 130 292 L 0 292 Z M 0 0.140625 " clip-rule="nonzero"/></clipPath><clipPath id="b7ccfdab3a"><path d="M 90 0.140625 L 466 0.140625 L 466 292 L 90 292 Z M 90 0.140625 " clip-rule="nonzero"/></clipPath><clipPath id="1eba126132"><path d="M 426 0.140625 L 802 0.140625 L 802 292 L 426 292 Z M 426 0.140625 " clip-rule="nonzero"/></clipPath><clipPath id="b33e013522"><path d="M 762 0.140625 L 1024 0.140625 L 1024 292 L 762 292 Z M 762 0.140625 " clip-rule="nonzero"/></clipPath><clipPath id="6ae3a3d67a"><rect x="0" width="1024" y="0" height="576"/></clipPath><clipPath id="90185759bd"><path d="M 453.773438 108.199219 L 469.75 108.199219 L 469.75 125.179688 L 453.773438 125.179688 Z M 453.773438 108.199219 " clip-rule="nonzero"/></clipPath><clipPath id="15b79b27d8"><path d="M 0.773438 0.199219 L 16.75 0.199219 L 16.75 17.179688 L 0.773438 17.179688 Z M 0.773438 0.199219 " clip-rule="nonzero"/></clipPath><clipPath id="62ba42aefd"><rect x="0" width="17" y="0" height="18"/></clipPath></defs><g clip-path="url(#be6e32c122)"><path fill="#ffffff" d="M 0 0.140625 L 1024 0.140625 L 1024 575.859375 L 0 575.859375 Z M 0 0.140625 " fill-opacity="1" fill-rule="nonzero"/><path fill="#131c1d" d="M 0 0.140625 L 1024 0.140625 L 1024 575.859375 L 0 575.859375 Z M 0 0.140625 " fill-opacity="1" fill-rule="nonzero"/><g mask="url(#34d8bd9909)"><g transform="matrix(1, 0, 0, 1, 0, -0.000000000000058398)"><g clip-path="url(#6ae3a3d67a)"><g clip-path="url(#e5c38acddd)"><path fill="#304243" d="M -116.722656 582.707031 L -284.628906 582.707031 L -77.3125 291.4375 L 90.59375 291.4375 Z M -116.722656 582.707031 " fill-opacity="1" fill-rule="nonzero"/></g><g clip-path="url(#287db5c416)"><path fill="#304243" d="M 219.132812 582.707031 L 51.222656 582.707031 L 258.539062 291.4375 L 426.449219 291.4375 Z M 219.132812 582.707031 " fill-opacity="1" fill-rule="nonzero"/></g><g clip-path="url(#a914947ccf)"><path fill="#304243" d="M 554.941406 582.707031 L 387.03125 582.707031 L 594.347656 291.4375 L 762.257812 291.4375 Z M 554.941406 582.707031 " fill-opacity="1" fill-rule="nonzero"/></g><g clip-path="url(#93dbe9bad3)"><path fill="#304243" d="M 890.828125 582.707031 L 722.917969 582.707031 L 930.238281 291.4375 L 1098.144531 291.4375 Z M 890.828125 582.707031 " fill-opacity="1" fill-rule="nonzero"/></g><g clip-path="url(#37eff8e401)"><path fill="#304243" d="M -77.421875 291.4375 L -245.328125 291.4375 L -38.015625 0.167969 L 129.894531 0.167969 Z M -77.421875 291.4375 " fill-opacity="1" fill-rule="nonzero"/></g><g clip-path="url(#b7ccfdab3a)"><path fill="#304243" d="M 258.503906 291.4375 L 90.59375 291.4375 L 297.910156 0.167969 L 465.816406 0.167969 Z M 258.503906 291.4375 " fill-opacity="1" fill-rule="nonzero"/></g><g clip-path="url(#1eba126132)"><path fill="#304243" d="M 594.355469 291.4375 L 426.449219 291.4375 L 633.761719 0.167969 L 801.671875 0.167969 Z M 594.355469 291.4375 " fill-opacity="1" fill-rule="nonzero"/></g><g clip-path="url(#b33e013522)"><path fill="#304243" d="M 930.164062 291.4375 L 762.257812 291.4375 L 969.570312 0.167969 L 1137.480469 0.167969 Z M 930.164062 291.4375 " fill-opacity="1" fill-rule="nonzero"/></g></g></g></g></g><g clip-path="url(#90185759bd)"><g transform="matrix(1, 0, 0, 1, 453, 108)"><g clip-path="url(#62ba42aefd)"><g clip-path="url(#15b79b27d8)"><path fill="#131c1d" d="M 0.773438 0.199219 L 16.75 0.199219 L 16.75 17.175781 L 0.773438 17.175781 Z M 0.773438 0.199219 " fill-opacity="1" fill-rule="nonzero"/></g></g></g></g></svg>